<svg width="106" height="18" viewBox="0 0 106 18" fill="none" xmlns="http://www.w3.org/2000/svg">
<g id="star frame">
<path id="star 1" d="M14.0012 17.9954C13.8569 17.996 13.7147 17.9602 13.5863 17.8912L8.98647 15.3629L4.38664 17.8912C4.23728 17.9736 4.06887 18.0105 3.90057 17.9974C3.73227 17.9844 3.57083 17.9221 3.43459 17.8175C3.29836 17.713 3.1928 17.5704 3.12991 17.406C3.06702 17.2415 3.04933 17.0619 3.07885 16.8875L3.98077 11.5563L0.264833 7.76863C0.148897 7.64716 0.0666537 7.49484 0.0269293 7.32802C-0.012795 7.1612 -0.00850089 6.98616 0.0393509 6.82171C0.0916265 6.65342 0.187787 6.50388 0.316919 6.39006C0.446052 6.27625 0.602986 6.20271 0.769912 6.1778L5.9109 5.39186L8.17474 0.534167C8.24859 0.37407 8.3639 0.239052 8.50747 0.144579C8.65103 0.0501064 8.81704 0 8.98647 0C9.1559 0 9.32191 0.0501064 9.46547 0.144579C9.60904 0.239052 9.72435 0.37407 9.79821 0.534167L12.0891 5.38239L17.2301 6.16833C17.397 6.19324 17.5539 6.26678 17.6831 6.38059C17.8122 6.49441 17.9084 6.64395 17.9606 6.81224C18.0085 6.97669 18.0128 7.15173 17.9731 7.31855C17.9333 7.48537 17.8511 7.63769 17.7352 7.75916L14.0192 11.5468L14.9212 16.878C14.9534 17.0555 14.9365 17.239 14.8726 17.4068C14.8086 17.5746 14.7003 17.7197 14.5604 17.8249C14.3971 17.9451 14.2004 18.005 14.0012 17.9954Z" fill="#40E0D0"/>
<path id="star 2" d="M36.0012 17.9954C35.8569 17.996 35.7147 17.9602 35.5863 17.8912L30.9865 15.3629L26.3866 17.8912C26.2373 17.9736 26.0689 18.0105 25.9006 17.9974C25.7323 17.9844 25.5708 17.9221 25.4346 17.8175C25.2984 17.713 25.1928 17.5704 25.1299 17.406C25.067 17.2415 25.0493 17.0619 25.0788 16.8875L25.9808 11.5563L22.2648 7.76863C22.1489 7.64716 22.0667 7.49484 22.0269 7.32802C21.9872 7.1612 21.9915 6.98616 22.0394 6.82171C22.0916 6.65342 22.1878 6.50388 22.3169 6.39006C22.4461 6.27625 22.603 6.20271 22.7699 6.1778L27.9109 5.39186L30.1747 0.534167C30.2486 0.37407 30.3639 0.239052 30.5075 0.144579C30.651 0.0501064 30.817 0 30.9865 0C31.1559 0 31.3219 0.0501064 31.4655 0.144579C31.609 0.239052 31.7244 0.37407 31.7982 0.534167L34.0891 5.38239L39.2301 6.16833C39.397 6.19324 39.5539 6.26678 39.6831 6.38059C39.8122 6.49441 39.9084 6.64395 39.9606 6.81224C40.0085 6.97669 40.0128 7.15173 39.9731 7.31855C39.9333 7.48537 39.8511 7.63769 39.7352 7.75916L36.0192 11.5468L36.9212 16.878C36.9534 17.0555 36.9365 17.239 36.8726 17.4068C36.8086 17.5746 36.7003 17.7197 36.5604 17.8249C36.3971 17.9451 36.2004 18.005 36.0012 17.9954Z" fill="#40E0D0"/>
<path id="star 3" d="M58.0012 17.9954C57.8569 17.996 57.7147 17.9602 57.5863 17.8912L52.9865 15.3629L48.3866 17.8912C48.2373 17.9736 48.0689 18.0105 47.9006 17.9974C47.7323 17.9844 47.5708 17.9221 47.4346 17.8175C47.2984 17.713 47.1928 17.5704 47.1299 17.406C47.067 17.2415 47.0493 17.0619 47.0788 16.8875L47.9808 11.5563L44.2648 7.76863C44.1489 7.64716 44.0667 7.49484 44.0269 7.32802C43.9872 7.1612 43.9915 6.98616 44.0394 6.82171C44.0916 6.65342 44.1878 6.50388 44.3169 6.39006C44.4461 6.27625 44.603 6.20271 44.7699 6.1778L49.9109 5.39186L52.1747 0.534167C52.2486 0.37407 52.3639 0.239052 52.5075 0.144579C52.651 0.0501064 52.817 0 52.9865 0C53.1559 0 53.3219 0.0501064 53.4655 0.144579C53.609 0.239052 53.7244 0.37407 53.7982 0.534167L56.0891 5.38239L61.2301 6.16833C61.397 6.19324 61.5539 6.26678 61.6831 6.38059C61.8122 6.49441 61.9084 6.64395 61.9606 6.81224C62.0085 6.97669 62.0128 7.15173 61.9731 7.31855C61.9333 7.48537 61.8511 7.63769 61.7352 7.75916L58.0192 11.5468L58.9212 16.878C58.9534 17.0555 58.9365 17.239 58.8726 17.4068C58.8086 17.5746 58.7003 17.7197 58.5604 17.8249C58.3971 17.9451 58.2004 18.005 58.0012 17.9954Z" fill="#40E0D0"/>
<path id="star 4" d="M80.0012 17.9954C79.8569 17.996 79.7147 17.9602 79.5863 17.8912L74.9865 15.3629L70.3866 17.8912C70.2373 17.9736 70.0689 18.0105 69.9006 17.9974C69.7323 17.9844 69.5708 17.9221 69.4346 17.8175C69.2984 17.713 69.1928 17.5704 69.1299 17.406C69.067 17.2415 69.0493 17.0619 69.0788 16.8875L69.9808 11.5563L66.2648 7.76863C66.1489 7.64716 66.0667 7.49484 66.0269 7.32802C65.9872 7.1612 65.9915 6.98616 66.0394 6.82171C66.0916 6.65342 66.1878 6.50388 66.3169 6.39006C66.4461 6.27625 66.603 6.20271 66.7699 6.1778L71.9109 5.39186L74.1747 0.534167C74.2486 0.37407 74.3639 0.239052 74.5075 0.144579C74.651 0.0501064 74.817 0 74.9865 0C75.1559 0 75.3219 0.0501064 75.4655 0.144579C75.609 0.239052 75.7244 0.37407 75.7982 0.534167L78.0891 5.38239L83.2301 6.16833C83.397 6.19324 83.5539 6.26678 83.6831 6.38059C83.8122 6.49441 83.9084 6.64395 83.9606 6.81224C84.0085 6.97669 84.0128 7.15173 83.9731 7.31855C83.9333 7.48537 83.8511 7.63769 83.7352 7.75916L80.0192 11.5468L80.9212 16.878C80.9534 17.0555 80.9365 17.239 80.8726 17.4068C80.8086 17.5746 80.7003 17.7197 80.5604 17.8249C80.3971 17.9451 80.2004 18.005 80.0012 17.9954Z" fill="#40E0D0"/>
<path id="star 5" d="M102.001 17.9954C101.857 17.996 101.715 17.9602 101.586 17.8912L96.9865 15.3629L92.3866 17.8912C92.2373 17.9736 92.0689 18.0105 91.9006 17.9974C91.7323 17.9844 91.5708 17.9221 91.4346 17.8175C91.2984 17.713 91.1928 17.5704 91.1299 17.406C91.067 17.2415 91.0493 17.0619 91.0788 16.8875L91.9808 11.5563L88.2648 7.76863C88.1489 7.64716 88.0667 7.49484 88.0269 7.32802C87.9872 7.1612 87.9915 6.98616 88.0394 6.82171C88.0916 6.65342 88.1878 6.50388 88.3169 6.39006C88.4461 6.27625 88.603 6.20271 88.7699 6.1778L93.9109 5.39186L96.1747 0.534167C96.2486 0.37407 96.3639 0.239052 96.5075 0.144579C96.651 0.0501064 96.817 0 96.9865 0C97.1559 0 97.3219 0.0501064 97.4655 0.144579C97.609 0.239052 97.7244 0.37407 97.7982 0.534167L100.089 5.38239L105.23 6.16833C105.397 6.19324 105.554 6.26678 105.683 6.38059C105.812 6.49441 105.908 6.64395 105.961 6.81224C106.009 6.97669 106.013 7.15173 105.973 7.31855C105.933 7.48537 105.851 7.63769 105.735 7.75916L102.019 11.5468L102.921 16.878C102.953 17.0555 102.936 17.239 102.873 17.4068C102.809 17.5746 102.7 17.7197 102.56 17.8249C102.397 17.9451 102.2 18.005 102.001 17.9954Z" fill="#40E0D0"/>
</g>
</svg>
